# xmcd
#
# Track frame offsets: 
#        150
#        19054
#        34046
#        53610
#        69251
#        90238
#        113097
#        127787
#        144088
#        165707
#
# Disc length: 2417 seconds
#
# Revision: 3
# Processed by: cddbd v1.5.1PL0 Copyright (c) Steve Scherf et al.
# Submitted via: ExactAudioCopy v0.95a4
#
DISCID=6b096f0a
DTITLE=Wayanay Inka - Enchanted Feelings
DYEAR=1999
DGENRE=Blues
TTITLE0=Coral (Coral)
TTITLE1=Road to Antigua (Camino A Antigua)
TTITLE2=Come Back My Love (Regresa Amor)
TTITLE3=Bamboo (Bambú)
TTITLE4=The Eagle Pass (Paso del Aguila)
TTITLE5=Shepherd Girl (Pastorcita)
TTITLE6=Inka's Dreams (Sueños del Inka)
TTITLE7=Our Anniversary (Nuestro Aniversario)
TTITLE8=Tikal (Tikal)
TTITLE9=Sweet Jazmine (Dulce Jazmine)
EXTD=
EXTT0=
EXTT1=
EXTT2=
EXTT3=
EXTT4=
EXTT5=
EXTT6=
EXTT7=
EXTT8=
EXTT9=
PLAYORDER=
